***************************************************************

[IMG]http://www.hotimg.org/images/67363952943939111394.png[/IMG]

***************************************************************

[IMG]http://www.hotimg.org/images/73549616348926753713.jpg[/IMG]

***************************************************************

FILM TITLE: J. Edgar (2011)

***************************************************************

Genre: Biography | Crime | Drama    

Rated R for brief strong language

Release:  20 January 2012 (Sweden)

Director: Clint Eastwood

Writer: Dustin Lance Black

Stars: Leonardo DiCaprio, Armie Hammer and Naomi Watts 

Country: USA 

Language: English 

Plot:
As the face of law enforcement in America for almost 50 years, J. Edgar Hoover 
was feared and admired, reviled and revered. But behind closed doors, he held 
secrets that would have destroyed his image, his career and his life.

IMDB Rating: 7.0/10 from 14,078 users   Metascore: 59/100
 
http://www.imdb.com/title/tt1616195/

****************************************************************

[URL=http://www.hotimg.org/viewer.php?file=34138955732934923082.png][IMG]http://www.hotimg.org/images/34138955732934923082_thumb.png[/IMG][/URL]
[URL=http://www.hotimg.org/viewer.php?file=68236732541628944340.png][IMG]http://www.hotimg.org/images/68236732541628944340_thumb.png[/IMG][/URL]
[URL=http://www.hotimg.org/viewer.php?file=85858412737064366167.png][IMG]http://www.hotimg.org/images/85858412737064366167_thumb.png[/IMG][/URL]
[URL=http://www.hotimg.org/viewer.php?file=96345875346059477806.png][IMG]http://www.hotimg.org/images/96345875346059477806_thumb.png[/IMG][/URL]
[URL=http://www.hotimg.org/viewer.php?file=49258979542395059577.png][IMG]http://www.hotimg.org/images/49258979542395059577_thumb.png[/IMG][/URL]

****************************************************************

General
Complete name                    : J.Edgar 2011 720p BDRip XviD ac3 (avi) [GREYSHADOW].avi
Format                           : AVI
Format/Info                      : Audio Video Interleave
Format profile                   : OpenDML
File size                        : 3.82 GiB
Duration                         : 2h 16mn
Overall bit rate                 : 3994 Kbps
Writing library                  : VirtualDub build 32842/release

Video
ID                               : 0
Format                           : MPEG-4 Visual
Format profile                   : Simple@L5
Format settings, BVOP            : No
Format settings, QPel            : No
Format settings, GMC             : No warppoints
Format settings, Matrix          : Default (H.263)
Codec ID                         : XVID
Codec ID/Hint                    : XviD
Duration                         : 2h 16mn
Bit rate                         : 3345 Kbps
Width                            : 1280 pixels
Height                           : 528 pixels
Display aspect ratio             : 2.40:1
Frame rate                       : 23.976 fps
Color space                      : YUV
Chroma subsampling               : 4:2:0
Bit depth                        : 8 bits
Scan type                        : Progressive
Compression mode                 : Lossy
Bits/(Pixel*Frame)               : 0.206
Stream size                      : 3.20 GiB (84%)
Writing library                  : XviD 64

Audio
ID                               : 1
Format                           : AC-3
Format/Info                      : Audio Coding 3
Mode extension                   : CM (complete main)
Codec ID                         : 2000
Duration                         : 2h 16mn
Bit rate mode                    : Constant
Bit rate                         : 640 Kbps
Channel(s)                       : 6 channels
Channel positions                : Front: L C R, Side: L R, LFE
Sampling rate                    : 48.0 KHz
Bit depth                        : 16 bits
Compression mode                 : Lossy
Stream size                      : 627 MiB (16%)
Alignment                        : Aligned on interleaves
Interleave, duration             : 42 ms (1.00 video frame)
Interleave, preload duration     : 512 ms

****************************************************************

Video Source: J.Edgar.2011.BluRay.1080p.AVC.DTS-HD.MA5.1-CHDBits (27.14GB)

Thanks: chdbits.org

****************************************************************

I provide a small sample, so please download this to check your 
compatibility first if you are unsure.

****************************************************************

Hash: 0977225A3A21C0C44F1C69DF18278D4610D8C7AC

Trackers:
.udp://tracker.1337x.org:80/announce

****************************************************************